<?xml version="1.0" encoding="utf-8"?>
<!-- Generator: Adobe Illustrator 21.1.0, SVG Export Plug-In . SVG Version: 6.00 Build 0)  -->
<svg version="1.1" id="Слой_1" xmlns="http://www.w3.org/2000/svg" xmlns:xlink="http://www.w3.org/1999/xlink" x="0px" y="0px"
	 viewBox="0 0 41.4 41.4" enable-background="new 0 0 41.4 41.4" xml:space="preserve">
<path fill-rule="evenodd" clip-rule="evenodd" d="M13.5,17.9c0.4-0.1,0.9-0.4,1.3-0.5c1.2-0.5,8.3-3.8,8.7-3.9
	c0.3,0.9,2.7,6.1,3.3,7.5c0.3,0.6,1,2,1.1,2.5c-1.2,0.4-9.3,4.4-10,4.4c-0.4-0.8-0.7-1.7-1.1-2.5l-2.2-5
	C14.3,19.9,13.6,18.4,13.5,17.9L13.5,17.9z M19.4,3.1c-0.2,1.7,0.7,2.5,1,3.7c-1.6,0.8-3.3,1.5-5,2.3c-1.2,0.5-3.9,1.8-4.9,2.2
	c-0.5-0.7-0.6-2.1-1.8-3C7.8,7.5,6.3,7.1,4.9,7.7C4,8.2,3,9.2,2.8,10.5c-0.3,1.7,0.6,2.6,1,3.8c-0.3,0.2-1.3,0.6-1.7,0.8
	c-3.5,1.7-2.5,6.4,0.9,6.9c1.7,0.3,2.7-0.7,3.8-1c0.8,1.6,1.5,3.3,2.2,5c0.7,1.7,1.6,3.3,2.2,5c-0.3,0.2-1.2,0.5-1.7,0.8
	c-3.6,1.7-2.4,6.5,0.9,6.9c1.7,0.2,2.5-0.6,3.7-1c0.2,0.3,0.6,1.3,0.8,1.7c0.9,1.8,3,2.7,4.8,1.9c1-0.5,1.9-1.4,2.1-2.8
	c0.2-1.7-0.7-2.5-1-3.7c1.6-0.8,3.3-1.5,5-2.3c1.5-0.7,3.6-1.7,4.9-2.2c0.3,0.3,0.6,1.2,0.8,1.7c0.9,1.9,2.9,2.7,4.8,1.9
	c1-0.4,1.9-1.4,2.1-2.7c0.3-1.7-0.6-2.6-1-3.8c0.3-0.2,1.3-0.6,1.7-0.8c1.9-0.9,2.7-2.9,1.9-4.8c-0.8-1.8-2.8-2.6-4.8-1.8
	c-0.5,0.2-1.2,0.6-1.7,0.7c-0.5-1.1-1.7-3.7-2.2-5l-1.7-3.8c-0.2-0.4-0.4-0.9-0.5-1.2c0.4-0.3,1.2-0.5,1.7-0.8
	c1.8-0.9,2.8-2.8,1.9-4.8c-0.4-1-1.4-1.9-2.7-2.1c-1.6-0.3-2.6,0.6-3.8,1c-0.2-0.2-0.6-1.3-0.8-1.7C24.7-1.3,19.9-0.4,19.4,3.1
	L19.4,3.1z"/>
</svg>
