<?xml version="1.0" encoding="utf-8"?>
<!-- Generator: Adobe Illustrator 21.1.0, SVG Export Plug-In . SVG Version: 6.00 Build 0)  -->
<svg version="1.1" id="Слой_1" xmlns="http://www.w3.org/2000/svg" xmlns:xlink="http://www.w3.org/1999/xlink" x="0px" y="0px"
	 viewBox="0 0 43.6 43.5" enable-background="new 0 0 43.6 43.5" xml:space="preserve">
<path fill="#1A1A18" d="M43.5,23.4c0.7-6.4-2.1-12.3-5.4-16.1c-3.3-3.7-8-6.5-14.7-7.2C11.1-1.1,0.7,9,0,20
	c-0.4,6.8,2,12.3,5.5,16.3c8,8.9,21.4,9.9,30.8,1.7C40.6,34.2,42.8,29.4,43.5,23.4 M30.1,16.3c-1.6,4.4-3.2,9.1-4.8,13.6
	c-0.4,1.1-0.6,2.7-1.9,2.7c-1.2,0.1-1.8-1.5-2.2-2.4c-0.5-1.1-1-2-1.5-3.1c-0.8-1.6-0.6-1.6-2.3-2.4c-1-0.5-2-1-3.1-1.5
	c-0.9-0.4-2.4-1-2.5-2.1c-0.2-1.3,1.4-1.6,2.5-2s2.3-0.8,3.4-1.2L28,14.3C29.5,13.8,30.7,14.6,30.1,16.3z"/>
</svg>
