<?xml version="1.0" encoding="utf-8"?>
<!-- Generator: Adobe Illustrator 21.1.0, SVG Export Plug-In . SVG Version: 6.00 Build 0)  -->
<svg version="1.1" id="Слой_1" xmlns="http://www.w3.org/2000/svg" xmlns:xlink="http://www.w3.org/1999/xlink" x="0px" y="0px"
	 viewBox="0 0 49 40" enable-background="new 0 0 49 40" xml:space="preserve">
<path fill-rule="evenodd" clip-rule="evenodd" fill="#02080E" d="M24.1,12.4c-2.3-0.1-4.7-0.5-6.7-1.1C12.4,9.8,8.9,7.4,5.3,4
	c-1-1-1.1-1.3-1.9-2.1C3.3,2,3.3,1.9,3.3,2c-0.5,0.7-1,2.4-1.2,3.3C1.6,7.9,2.5,11,3.9,12.9c1,1.3,2.2,2.1,2.4,2.4
	c-0.7,0-1.8-0.2-2.4-0.4c-0.9-0.3-1.7-0.7-2.1-0.8c0.1,2.9,1,4.9,2.4,6.6c0.7,0.8,1.4,1.4,2.3,2c1.6,1,2.1,0.9,3,1.3c0,0,0,0,0.1,0
	l0.1,0.1c-0.2,0.1-0.6,0.2-0.9,0.2c-1.5,0.2-2,0.1-3.4,0c0.3,1.7,2,3.8,3.3,4.8c1.5,1.2,3.4,2,6,2.1c-0.3,0.4-2.2,1.6-2.9,1.9
	c-1,0.5-2.2,1.1-3.4,1.4c-2.3,0.7-3.8,1-6.2,1c-0.7,0-1.7-0.1-2.3-0.1L0.7,36c9.2,5.4,21,5.4,29.9-0.1c3.9-2.5,7.1-5.7,9.6-10.1
	c4.7-8.4,3.7-15.2,3.9-15.7c0.2-0.3,1.1-0.9,1.4-1.1c1-0.8,1.7-1.6,2.5-2.5c0.4-0.4,0.7-1.1,1.1-1.5c-0.3,0-2.1,0.7-2.6,0.8
	c-0.8,0.2-2,0.5-2.9,0.6C43.8,5.9,45,5.2,46,4c0.5-0.7,1.4-2.1,1.7-3.1c-0.4,0.1-1.3,0.7-1.7,0.9c-1.2,0.5-2.6,1-3.9,1.3
	c-1.2,0.3-0.7,0.1-1.7-0.7c-2-1.6-4.6-2.7-8.1-2.2c-4.9,0.7-8.4,5.1-8.5,9.8C23.9,10.9,24,11.5,24.1,12.4L24.1,12.4z"/>
</svg>
